<svg xmlns="http://www.w3.org/2000/svg" viewBox="0 0 32 32">
  <defs>
    <linearGradient id="zg" x1="4" y1="4" x2="28" y2="28" gradientUnits="userSpaceOnUse">
      <stop offset="0%" stop-color="#FBBF24"/>
      <stop offset="100%" stop-color="#F2A20C"/>
    </linearGradient>
  </defs>
  <rect width="32" height="32" rx="6" fill="#080D1A"/>
  <!-- Phosphor Star bold (phosphoricons.com), scaled from 256×256 to 24×24 active area -->
  <g transform="translate(4,4) scale(0.09375)">
    <path d="M234.29,114.85l-45,38.83L203,211a16,16,0,0,1-23.84,17.71L128,198.49,76.84,228.7A16,16,0,0,1,53,211l13.7-57.32-45-38.83A16,16,0,0,1,31.18,86l58.17-5.27,22.39-54.37a16,16,0,0,1,29.52,0l22.39,54.37L221.82,86a16,16,0,0,1,9.11,28.85Z" fill="url(#zg)"/>
  </g>
</svg>
